<svg width="661" height="337" viewBox="0 0 661 337" fill="none" xmlns="http://www.w3.org/2000/svg">
<path d="M126.04 186.42V201H59.08V78.6H74.74V186.42H126.04ZM165.795 201H150.135V78.6H165.795V201ZM204.1 201V78.6H220.48C231.4 94.2 241.42 109.92 250.54 125.76C259.78 141.48 268.42 157.92 276.46 175.08L274.66 128.28V78.6H289.96V201H273.58C265.18 183.48 256.48 166.44 247.48 149.88C238.6 133.2 228.88 116.94 218.32 101.1L219.4 150.96V201H204.1ZM395.157 201L360.237 143.22C357.717 145.86 355.077 148.56 352.317 151.32C349.677 154.08 346.917 156.84 344.037 159.6V201H328.377V78.6H344.037V142.14C355.317 130.74 364.737 119.94 372.297 109.74C379.857 99.54 386.277 89.16 391.557 78.6H408.477C403.077 89.16 397.437 98.76 391.557 107.4C385.797 115.92 379.197 124.44 371.757 132.96L414.237 201H395.157ZM504.003 186.42V201H435.603V78.6H502.203V93.36H451.263V131.7H496.803V146.46H451.263V186.42H504.003ZM546.888 153.12V201H531.228V78.6H569.568C581.088 78.6 589.968 81.66 596.208 87.78C602.568 93.78 605.748 101.82 605.748 111.9V119.64C605.748 126.84 604.068 133.08 600.708 138.36C597.468 143.64 592.788 147.54 586.668 150.06C591.828 158.34 596.628 166.74 601.068 175.26C605.508 183.78 609.588 192.36 613.308 201H595.308C588.468 184.68 580.488 168.72 571.368 153.12H546.888ZM569.568 93H546.888V138.72H569.568C575.688 138.72 580.548 137.04 584.148 133.68C587.748 130.2 589.548 125.52 589.548 119.64V111.9C589.548 105.9 587.748 101.28 584.148 98.04C580.548 94.68 575.688 93 569.568 93Z" fill="url(#paint0_linear_1_6)"/>
<path fill-rule="evenodd" clip-rule="evenodd" d="M15 15H646V251H381.248V266H646H661V251V15V0H646H15H0V15V251V266H15H284.87V251H15V15Z" fill="#5737BF"/>
<path d="M322.029 299.405C321.863 298.09 321.37 296.279 320.052 294.961C319.065 293.973 317.581 293.314 315.772 292.986C314.125 292.821 313.301 293.644 313.301 293.644L302.268 304.677C302.268 304.677 301.115 305.666 300.621 307.312C300.126 309.123 300.455 310.277 300.95 310.934C301.279 311.428 301.608 311.924 302.103 312.252C302.597 312.748 303.092 313.24 303.75 313.57C304.244 313.899 305.397 314.394 306.714 314.227C308.66 314.046 310.038 312.558 310.038 312.558L321.206 301.544C321.205 301.548 322.029 300.725 322.029 299.405ZM310.5 288.405C310.334 287.086 309.84 285.279 308.523 283.961C307.534 282.969 306.052 282.312 304.241 281.986C302.594 281.819 301.771 282.642 301.771 282.642L290.738 293.675C290.738 293.675 289.585 294.665 289.09 296.311C288.596 298.123 288.925 299.276 289.419 299.933C289.75 300.429 290.079 300.925 290.572 301.251C291.067 301.747 291.561 302.241 292.219 302.57C292.714 302.898 293.867 303.393 295.183 303.226C297.129 303.047 298.508 301.554 298.508 301.554L309.676 290.543C309.676 290.543 310.5 289.722 310.5 288.405ZM396.077 250.35C393.442 230.75 374.946 214.961 351.959 218.727C335.766 220.516 325.372 232.087 325.372 232.087L304.267 252.667C312.364 260.663 319.633 260.663 325.861 256.413L341.67 240.932L385.276 284.298C395.327 271.366 397.395 260.56 396.077 250.35ZM341.506 248.014L329.318 260.036C323.554 265.471 312.337 267.118 300.973 257.072L296.466 253.043L325.365 225.452C325.201 225.287 297.956 205.973 273.274 230.192C264.545 240.074 261.429 250.098 263.733 262.285C266.527 276.376 276.681 287.933 283.269 294.024L286.62 290.84C286.949 290.512 287.278 290.347 287.443 290.185L300.783 277.665C300.783 277.665 301.713 276.865 303.418 276.842C306.876 276.676 309.182 277.5 311.158 279.149C314.122 281.619 315.111 285.408 315.44 287.879C318.733 288.208 321.533 289.359 323.509 291.501C325.98 293.97 326.802 297.266 326.967 299.405C330.26 299.736 333.06 300.886 335.038 303.029C337.341 305.499 338.331 308.463 338.66 310.606C343.264 311.056 346.332 313.34 347.979 315.847C348.751 317.018 352.371 316.854 354.516 315.209C356.657 313.396 357.809 309.28 355.171 306.317L327.011 278.647C326.022 277.657 326.022 276.176 327.011 275.187C328 274.197 329.482 274.197 330.47 275.187L358.302 303.018C362.585 307.136 369.333 303.842 367.856 298.407C367.36 296.76 365.879 295.115 365.879 295.115L338.211 267.444C337.219 266.455 337.219 264.973 338.211 263.986C339.198 262.996 340.681 262.996 341.669 263.986L369.832 291.983C369.832 291.983 371.807 294.127 374.606 293.796C378.56 293.302 381.689 289.185 379.219 285.395L341.506 248.014ZM339.411 316.29C337.243 316.038 336.36 317.03 336.36 317.03L324.997 327.899C324.502 328.393 323.515 330.041 324.009 332.179C324.378 333.613 325.656 334.981 326.644 335.641C328.62 336.959 331.938 336.361 333.746 335.049C335.561 333.569 339.872 329.166 341.518 327.68C343.33 325.866 345.091 324.442 345.091 321.97C345.085 319.969 343.854 316.807 339.411 316.29ZM333.46 311.901C333.292 310.421 332.898 308.63 331.252 306.983C330.098 305.829 328.614 305.005 326.637 304.84C325.155 304.84 324.66 305.336 324.66 305.336L313.791 316.041C313.791 316.041 312.473 317.356 312.144 319.003C311.59 322.766 315.102 324.625 316.224 325.027C319.481 326.365 321.695 324.439 321.695 324.439L332.569 313.901C333.124 313.376 333.46 312.893 333.46 311.901Z" fill="#D85032"/>
<defs>
<linearGradient id="paint0_linear_1_6" x1="621" y1="25" x2="24.1682" y2="180.064" gradientUnits="userSpaceOnUse">
<stop stop-color="#4032D8"/>
<stop offset="1" stop-color="#D85032"/>
</linearGradient>
</defs>
</svg>
