<svg width="775" height="333" viewBox="0 0 775 333" fill="none" xmlns="http://www.w3.org/2000/svg">
<path d="M126.04 186.42V201H59.08V78.6H74.74V186.42H126.04ZM165.795 201H150.135V78.6H165.795V201ZM204.1 201V78.6H220.48C231.4 94.2 241.42 109.92 250.54 125.76C259.78 141.48 268.42 157.92 276.46 175.08L274.66 128.28V78.6H289.96V201H273.58C265.18 183.48 256.48 166.44 247.48 149.88C238.6 133.2 228.88 116.94 218.32 101.1L219.4 150.96V201H204.1ZM395.157 201L360.237 143.22C357.717 145.86 355.077 148.56 352.317 151.32C349.677 154.08 346.917 156.84 344.037 159.6V201H328.377V78.6H344.037V142.14C355.317 130.74 364.737 119.94 372.297 109.74C379.857 99.54 386.277 89.16 391.557 78.6H408.477C403.077 89.16 397.437 98.76 391.557 107.4C385.797 115.92 379.197 124.44 371.757 132.96L414.237 201H395.157ZM435.603 201V78.6H473.583C487.623 78.6 498.423 82.86 505.983 91.38C513.543 99.78 517.323 111.42 517.323 126.3V153.12C517.323 168.12 513.543 179.88 505.983 188.4C498.423 196.8 487.623 201 473.583 201H435.603ZM473.223 93.36H451.263V186.42H473.223C491.823 186.42 501.123 175.32 501.123 153.12V126.3C501.123 104.34 491.823 93.36 473.223 93.36ZM618.613 186.42V201H550.213V78.6H616.813V93.36H565.873V131.7H611.413V146.46H565.873V186.42H618.613ZM661.498 153.12V201H645.838V78.6H684.178C695.698 78.6 704.578 81.66 710.818 87.78C717.178 93.78 720.358 101.82 720.358 111.9V119.64C720.358 126.84 718.678 133.08 715.318 138.36C712.078 143.64 707.398 147.54 701.278 150.06C706.438 158.34 711.238 166.74 715.678 175.26C720.118 183.78 724.198 192.36 727.918 201H709.918C703.078 184.68 695.098 168.72 685.978 153.12H661.498ZM684.178 93H661.498V138.72H684.178C690.298 138.72 695.158 137.04 698.758 133.68C702.358 130.2 704.158 125.52 704.158 119.64V111.9C704.158 105.9 702.358 101.28 698.758 98.04C695.158 94.68 690.298 93 684.178 93Z" fill="url(#paint0_linear_1_6)"/>
<path fill-rule="evenodd" clip-rule="evenodd" d="M15 15H760V251H447V266H760H775V251V15V0H760H15H0V15V251V266H15H334V251H15V15Z" fill="#5737BF"/>
<path d="M379.812 295.715C379.647 294.4 379.154 292.589 377.836 291.271C376.848 290.284 375.365 289.624 373.555 289.296C371.908 289.131 371.084 289.955 371.084 289.955L360.051 300.988C360.051 300.988 358.899 301.977 358.404 303.622C357.91 305.433 358.239 306.588 358.733 307.244C359.062 307.739 359.392 308.235 359.886 308.562C360.381 309.058 360.875 309.55 361.533 309.88C362.028 310.21 363.18 310.704 364.497 310.537C366.443 310.356 367.822 308.868 367.822 308.868L378.99 297.854C378.988 297.859 379.812 297.035 379.812 295.715ZM368.283 284.716C368.118 283.396 367.623 281.59 366.307 280.271C365.318 279.28 363.836 278.623 362.025 278.297C360.378 278.13 359.554 278.952 359.554 278.952L348.521 289.985C348.521 289.985 347.368 290.975 346.874 292.621C346.379 294.434 346.708 295.586 347.203 296.243C347.534 296.739 347.863 297.235 348.356 297.561C348.85 298.057 349.345 298.552 350.003 298.881C350.497 299.208 351.65 299.703 352.967 299.536C354.913 299.358 356.292 297.864 356.292 297.864L367.459 286.853C367.459 286.853 368.283 286.032 368.283 284.716ZM453.861 246.66C451.226 227.061 432.73 211.272 409.743 215.037C393.549 216.827 383.156 228.398 383.156 228.398L362.051 248.978C370.148 256.973 377.417 256.973 383.644 252.723L399.454 237.243L443.06 280.608C453.111 267.677 455.179 256.87 453.861 246.66ZM399.29 244.325L387.101 256.346C381.337 261.781 370.12 263.428 358.757 253.383L354.25 249.353L383.148 221.763C382.985 221.597 355.739 202.283 331.057 226.503C322.328 236.384 319.212 246.408 321.516 258.595C324.31 272.687 334.465 284.243 341.052 290.334L344.403 287.15C344.732 286.823 345.061 286.657 345.227 286.495L358.567 273.976C358.567 273.976 359.496 273.175 361.201 273.152C364.659 272.987 366.965 273.81 368.941 275.459C371.905 277.93 372.894 281.719 373.223 284.189C376.516 284.519 379.316 285.67 381.292 287.811C383.763 290.281 384.585 293.577 384.751 295.715C388.044 296.046 390.844 297.196 392.821 299.339C395.124 301.81 396.114 304.774 396.443 306.917C401.047 307.366 404.115 309.65 405.763 312.157C406.534 313.329 410.155 313.165 412.299 311.519C414.441 309.706 415.592 305.59 412.955 302.628L384.794 274.957C383.805 273.967 383.805 272.486 384.794 271.498C385.783 270.507 387.265 270.507 388.254 271.498L416.085 299.329C420.368 303.447 427.117 300.152 425.639 294.718C425.143 293.071 423.663 291.425 423.663 291.425L395.994 263.755C395.002 262.766 395.002 261.284 395.994 260.296C396.981 259.306 398.465 259.306 399.452 260.296L427.616 288.293C427.616 288.293 429.59 290.437 432.389 290.107C436.343 289.612 439.472 285.496 437.003 281.706L399.29 244.325ZM397.195 312.601C395.027 312.348 394.144 313.34 394.144 313.34L382.78 324.209C382.286 324.704 381.298 326.351 381.793 328.49C382.161 329.924 383.44 331.291 384.427 331.951C386.404 333.269 389.721 332.672 391.529 331.359C393.345 329.879 397.656 325.477 399.301 323.99C401.114 322.176 402.874 320.753 402.874 318.28C402.868 316.279 401.637 313.117 397.195 312.601ZM391.244 308.212C391.076 306.731 390.681 304.94 389.035 303.293C387.881 302.139 386.398 301.315 384.42 301.15C382.938 301.15 382.444 301.646 382.444 301.646L371.575 312.351C371.575 312.351 370.256 313.666 369.927 315.314C369.373 319.076 372.885 320.935 374.008 321.337C377.264 322.675 379.478 320.75 379.478 320.75L390.352 310.211C390.907 309.686 391.244 309.203 391.244 308.212Z" fill="#D85032"/>
<defs>
<linearGradient id="paint0_linear_1_6" x1="735" y1="25" x2="40" y2="241" gradientUnits="userSpaceOnUse">
<stop stop-color="#4032D8"/>
<stop offset="1" stop-color="#D85032"/>
</linearGradient>
</defs>
</svg>
